<svg width="1920" height="1502" viewBox="0 0 1920 1502" fill="none" xmlns="http://www.w3.org/2000/svg">
<mask id="mask0_261_4" style="mask-type:alpha" maskUnits="userSpaceOnUse" x="0" y="0" width="1920" height="1502">
<rect width="1920" height="1502" fill="#D9D9D9"/>
</mask>
<g mask="url(#mask0_261_4)">
<line x1="54.8987" y1="-10.0978" x2="54.8986" y2="782.342" stroke="#4D4D4D" stroke-opacity="0.23"/>
<line x1="112.713" y1="-10.0978" x2="112.713" y2="782.342" stroke="#4D4D4D" stroke-opacity="0.23"/>
<line x1="170.527" y1="-10.0978" x2="170.527" y2="782.342" stroke="#4D4D4D" stroke-opacity="0.23"/>
<line x1="228.341" y1="-10.0978" x2="228.341" y2="782.342" stroke="#4D4D4D" stroke-opacity="0.23"/>
<line x1="286.156" y1="-10.0978" x2="286.156" y2="782.342" stroke="#4D4D4D" stroke-opacity="0.23"/>
<line x1="343.97" y1="-10.0978" x2="343.97" y2="782.342" stroke="#4D4D4D" stroke-opacity="0.23"/>
<line x1="401.784" y1="-10.0978" x2="401.784" y2="782.342" stroke="#4D4D4D" stroke-opacity="0.23"/>
<line x1="459.598" y1="-10.0978" x2="459.598" y2="782.342" stroke="#4D4D4D" stroke-opacity="0.23"/>
<line x1="517.412" y1="-10.0978" x2="517.412" y2="782.342" stroke="#4D4D4D" stroke-opacity="0.23"/>
<line x1="575.227" y1="-10.0978" x2="575.227" y2="782.342" stroke="#4D4D4D" stroke-opacity="0.23"/>
<line x1="633.04" y1="-10.0978" x2="633.04" y2="782.342" stroke="#4D4D4D" stroke-opacity="0.23"/>
<line x1="690.855" y1="-10.0978" x2="690.855" y2="782.342" stroke="#4D4D4D" stroke-opacity="0.23"/>
<line x1="748.67" y1="-10.0978" x2="748.67" y2="782.342" stroke="#4D4D4D" stroke-opacity="0.23"/>
<line x1="806.483" y1="-10.0978" x2="806.483" y2="782.342" stroke="#4D4D4D" stroke-opacity="0.23"/>
<line x1="864.299" y1="-10.0978" x2="864.299" y2="782.342" stroke="#4D4D4D" stroke-opacity="0.23"/>
<line x1="922.111" y1="-10.0978" x2="922.111" y2="782.342" stroke="#4D4D4D" stroke-opacity="0.23"/>
<line x1="980.024" y1="-10.0978" x2="980.024" y2="782.342" stroke="#4D4D4D" stroke-opacity="0.23"/>
<line x1="7.70251" y1="722.036" x2="979.427" y2="722.036" stroke="#4D4D4D" stroke-opacity="0.23"/>
<line x1="7.70251" y1="670.202" x2="979.427" y2="670.202" stroke="#4D4D4D" stroke-opacity="0.23"/>
<line x1="7.70251" y1="618.37" x2="979.427" y2="618.37" stroke="#4D4D4D" stroke-opacity="0.23"/>
<line x1="7.70251" y1="566.538" x2="979.427" y2="566.538" stroke="#4D4D4D" stroke-opacity="0.23"/>
<line x1="7.70251" y1="514.705" x2="979.427" y2="514.705" stroke="#4D4D4D" stroke-opacity="0.23"/>
<line x1="7.70251" y1="462.873" x2="979.427" y2="462.873" stroke="#4D4D4D" stroke-opacity="0.23"/>
<line x1="7.70251" y1="411.04" x2="979.427" y2="411.04" stroke="#4D4D4D" stroke-opacity="0.23"/>
<line x1="7.70251" y1="359.208" x2="979.427" y2="359.208" stroke="#4D4D4D" stroke-opacity="0.23"/>
<line x1="7.70251" y1="307.376" x2="979.427" y2="307.376" stroke="#4D4D4D" stroke-opacity="0.23"/>
<line x1="7.70251" y1="255.542" x2="979.427" y2="255.542" stroke="#4D4D4D" stroke-opacity="0.23"/>
<line x1="7.70251" y1="203.709" x2="979.427" y2="203.709" stroke="#4D4D4D" stroke-opacity="0.23"/>
<line x1="7.70251" y1="151.877" x2="979.427" y2="151.877" stroke="#4D4D4D" stroke-opacity="0.23"/>
<line x1="7.70251" y1="100.045" x2="979.427" y2="100.045" stroke="#4D4D4D" stroke-opacity="0.23"/>
<line x1="7.70251" y1="48.2129" x2="979.427" y2="48.2129" stroke="#4D4D4D" stroke-opacity="0.23"/>
<line x1="56.2146" y1="724.56" x2="56.2146" y2="1517" stroke="#4D4D4D" stroke-opacity="0.2"/>
<line x1="114.029" y1="724.56" x2="114.029" y2="1517" stroke="#4D4D4D" stroke-opacity="0.2"/>
<line x1="171.842" y1="724.56" x2="171.842" y2="1517" stroke="#4D4D4D" stroke-opacity="0.2"/>
<line x1="229.658" y1="724.56" x2="229.658" y2="1517" stroke="#4D4D4D" stroke-opacity="0.2"/>
<line x1="287.471" y1="724.56" x2="287.471" y2="1517" stroke="#4D4D4D" stroke-opacity="0.2"/>
<line x1="345.286" y1="724.56" x2="345.286" y2="1517" stroke="#4D4D4D" stroke-opacity="0.2"/>
<line x1="403.1" y1="724.56" x2="403.1" y2="1517" stroke="#4D4D4D" stroke-opacity="0.2"/>
<line x1="460.914" y1="724.56" x2="460.914" y2="1517" stroke="#4D4D4D" stroke-opacity="0.2"/>
<line x1="518.729" y1="724.56" x2="518.729" y2="1517" stroke="#4D4D4D" stroke-opacity="0.2"/>
<line x1="576.543" y1="724.56" x2="576.543" y2="1517" stroke="#4D4D4D" stroke-opacity="0.2"/>
<line x1="634.357" y1="724.56" x2="634.357" y2="1517" stroke="#4D4D4D" stroke-opacity="0.2"/>
<line x1="692.171" y1="724.56" x2="692.171" y2="1517" stroke="#4D4D4D" stroke-opacity="0.2"/>
<line x1="749.985" y1="724.56" x2="749.985" y2="1517" stroke="#4D4D4D" stroke-opacity="0.2"/>
<line x1="807.8" y1="724.56" x2="807.8" y2="1517" stroke="#4D4D4D" stroke-opacity="0.2"/>
<line x1="865.615" y1="724.56" x2="865.614" y2="1517" stroke="#4D4D4D" stroke-opacity="0.2"/>
<line x1="923.428" y1="724.56" x2="923.428" y2="1517" stroke="#4D4D4D" stroke-opacity="0.2"/>
<line x1="9.01831" y1="1456.69" x2="980.742" y2="1456.69" stroke="#4D4D4D" stroke-opacity="0.2"/>
<line x1="9.01831" y1="1404.86" x2="980.742" y2="1404.86" stroke="#4D4D4D" stroke-opacity="0.2"/>
<line x1="9.01831" y1="1353.03" x2="980.742" y2="1353.03" stroke="#4D4D4D" stroke-opacity="0.2"/>
<line x1="9.01831" y1="1301.2" x2="980.742" y2="1301.2" stroke="#4D4D4D" stroke-opacity="0.2"/>
<line x1="9.01831" y1="1249.36" x2="980.742" y2="1249.36" stroke="#4D4D4D" stroke-opacity="0.2"/>
<line x1="9.01831" y1="1197.53" x2="980.742" y2="1197.53" stroke="#4D4D4D" stroke-opacity="0.2"/>
<line x1="9.01831" y1="1145.7" x2="980.742" y2="1145.7" stroke="#4D4D4D" stroke-opacity="0.2"/>
<line x1="9.01831" y1="1093.87" x2="980.742" y2="1093.87" stroke="#4D4D4D" stroke-opacity="0.2"/>
<line x1="9.01831" y1="1042.03" x2="980.742" y2="1042.03" stroke="#4D4D4D" stroke-opacity="0.2"/>
<line x1="9.01831" y1="990.2" x2="980.742" y2="990.2" stroke="#4D4D4D" stroke-opacity="0.2"/>
<line x1="9.01831" y1="938.367" x2="980.742" y2="938.367" stroke="#4D4D4D" stroke-opacity="0.2"/>
<line x1="9.01831" y1="886.535" x2="980.742" y2="886.535" stroke="#4D4D4D" stroke-opacity="0.2"/>
<line x1="9.01831" y1="834.703" x2="980.742" y2="834.703" stroke="#4D4D4D" stroke-opacity="0.2"/>
<line x1="9.01831" y1="782.871" x2="980.742" y2="782.871" stroke="#4D4D4D" stroke-opacity="0.2"/>
<line x1="1027.47" y1="-10.0978" x2="1027.47" y2="782.342" stroke="#4D4D4D" stroke-opacity="0.23"/>
<line x1="1085.28" y1="-10.0978" x2="1085.28" y2="782.342" stroke="#4D4D4D" stroke-opacity="0.23"/>
<line x1="1143.1" y1="-10.0978" x2="1143.1" y2="782.342" stroke="#4D4D4D" stroke-opacity="0.23"/>
<line x1="1200.91" y1="-10.0978" x2="1200.91" y2="782.342" stroke="#4D4D4D" stroke-opacity="0.23"/>
<line x1="1258.72" y1="-10.0978" x2="1258.72" y2="782.342" stroke="#4D4D4D" stroke-opacity="0.23"/>
<line x1="1316.54" y1="-10.0978" x2="1316.54" y2="782.342" stroke="#4D4D4D" stroke-opacity="0.23"/>
<line x1="1374.35" y1="-10.0978" x2="1374.35" y2="782.342" stroke="#4D4D4D" stroke-opacity="0.23"/>
<line x1="1432.17" y1="-10.0978" x2="1432.17" y2="782.342" stroke="#4D4D4D" stroke-opacity="0.23"/>
<line x1="1489.98" y1="-10.0978" x2="1489.98" y2="782.342" stroke="#4D4D4D" stroke-opacity="0.23"/>
<line x1="1547.8" y1="-10.0978" x2="1547.8" y2="782.342" stroke="#4D4D4D" stroke-opacity="0.23"/>
<line x1="1605.61" y1="-10.0978" x2="1605.61" y2="782.342" stroke="#4D4D4D" stroke-opacity="0.23"/>
<line x1="1663.43" y1="-10.0978" x2="1663.43" y2="782.342" stroke="#4D4D4D" stroke-opacity="0.23"/>
<line x1="1721.24" y1="-10.0978" x2="1721.24" y2="782.342" stroke="#4D4D4D" stroke-opacity="0.23"/>
<line x1="1779.05" y1="-10.0978" x2="1779.05" y2="782.342" stroke="#4D4D4D" stroke-opacity="0.23"/>
<line x1="1836.87" y1="-10.0978" x2="1836.87" y2="782.342" stroke="#4D4D4D" stroke-opacity="0.23"/>
<line x1="1894.68" y1="-10.0978" x2="1894.68" y2="782.342" stroke="#4D4D4D" stroke-opacity="0.23"/>
<line x1="980.273" y1="722.036" x2="1952" y2="722.036" stroke="#4D4D4D" stroke-opacity="0.23"/>
<line x1="980.273" y1="670.202" x2="1952" y2="670.202" stroke="#4D4D4D" stroke-opacity="0.23"/>
<line x1="980.273" y1="618.37" x2="1952" y2="618.37" stroke="#4D4D4D" stroke-opacity="0.23"/>
<line x1="980.273" y1="566.538" x2="1952" y2="566.538" stroke="#4D4D4D" stroke-opacity="0.23"/>
<line x1="980.273" y1="514.705" x2="1952" y2="514.705" stroke="#4D4D4D" stroke-opacity="0.23"/>
<line x1="980.273" y1="462.873" x2="1952" y2="462.873" stroke="#4D4D4D" stroke-opacity="0.23"/>
<line x1="980.273" y1="411.04" x2="1952" y2="411.04" stroke="#4D4D4D" stroke-opacity="0.23"/>
<line x1="980.273" y1="359.208" x2="1952" y2="359.208" stroke="#4D4D4D" stroke-opacity="0.23"/>
<line x1="980.273" y1="307.376" x2="1952" y2="307.376" stroke="#4D4D4D" stroke-opacity="0.23"/>
<line x1="980.273" y1="255.542" x2="1952" y2="255.542" stroke="#4D4D4D" stroke-opacity="0.23"/>
<line x1="980.273" y1="203.709" x2="1952" y2="203.709" stroke="#4D4D4D" stroke-opacity="0.23"/>
<line x1="980.273" y1="151.877" x2="1952" y2="151.877" stroke="#4D4D4D" stroke-opacity="0.23"/>
<line x1="980.273" y1="100.045" x2="1952" y2="100.045" stroke="#4D4D4D" stroke-opacity="0.23"/>
<line x1="980.273" y1="48.2129" x2="1952" y2="48.2129" stroke="#4D4D4D" stroke-opacity="0.23"/>
<line x1="988.772" y1="724.56" x2="988.772" y2="1517" stroke="#4D4D4D" stroke-opacity="0.2"/>
<line x1="1046.59" y1="724.56" x2="1046.59" y2="1517" stroke="#4D4D4D" stroke-opacity="0.2"/>
<line x1="1104.4" y1="724.56" x2="1104.4" y2="1517" stroke="#4D4D4D" stroke-opacity="0.2"/>
<line x1="1162.22" y1="724.56" x2="1162.22" y2="1517" stroke="#4D4D4D" stroke-opacity="0.2"/>
<line x1="1220.03" y1="724.56" x2="1220.03" y2="1517" stroke="#4D4D4D" stroke-opacity="0.2"/>
<line x1="1277.84" y1="724.56" x2="1277.84" y2="1517" stroke="#4D4D4D" stroke-opacity="0.2"/>
<line x1="1335.66" y1="724.56" x2="1335.66" y2="1517" stroke="#4D4D4D" stroke-opacity="0.2"/>
<line x1="1393.47" y1="724.56" x2="1393.47" y2="1517" stroke="#4D4D4D" stroke-opacity="0.2"/>
<line x1="1451.29" y1="724.56" x2="1451.29" y2="1517" stroke="#4D4D4D" stroke-opacity="0.2"/>
<line x1="1509.1" y1="724.56" x2="1509.1" y2="1517" stroke="#4D4D4D" stroke-opacity="0.2"/>
<line x1="1566.91" y1="724.56" x2="1566.91" y2="1517" stroke="#4D4D4D" stroke-opacity="0.2"/>
<line x1="1624.73" y1="724.56" x2="1624.73" y2="1517" stroke="#4D4D4D" stroke-opacity="0.2"/>
<line x1="1682.54" y1="724.56" x2="1682.54" y2="1517" stroke="#4D4D4D" stroke-opacity="0.2"/>
<line x1="1740.36" y1="724.56" x2="1740.36" y2="1517" stroke="#4D4D4D" stroke-opacity="0.2"/>
<line x1="1798.17" y1="724.56" x2="1798.17" y2="1517" stroke="#4D4D4D" stroke-opacity="0.2"/>
<line x1="1855.98" y1="724.56" x2="1855.98" y2="1517" stroke="#4D4D4D" stroke-opacity="0.2"/>
<line x1="941.576" y1="1456.69" x2="1913.3" y2="1456.69" stroke="#4D4D4D" stroke-opacity="0.2"/>
<line x1="941.576" y1="1404.86" x2="1913.3" y2="1404.86" stroke="#4D4D4D" stroke-opacity="0.2"/>
<line x1="941.576" y1="1353.03" x2="1913.3" y2="1353.03" stroke="#4D4D4D" stroke-opacity="0.2"/>
<line x1="941.576" y1="1301.2" x2="1913.3" y2="1301.2" stroke="#4D4D4D" stroke-opacity="0.2"/>
<line x1="941.576" y1="1249.36" x2="1913.3" y2="1249.36" stroke="#4D4D4D" stroke-opacity="0.2"/>
<line x1="941.576" y1="1197.53" x2="1913.3" y2="1197.53" stroke="#4D4D4D" stroke-opacity="0.2"/>
<line x1="941.576" y1="1145.7" x2="1913.3" y2="1145.7" stroke="#4D4D4D" stroke-opacity="0.2"/>
<line x1="941.576" y1="1093.87" x2="1913.3" y2="1093.87" stroke="#4D4D4D" stroke-opacity="0.2"/>
<line x1="941.576" y1="1042.03" x2="1913.3" y2="1042.03" stroke="#4D4D4D" stroke-opacity="0.2"/>
<line x1="941.576" y1="990.2" x2="1913.3" y2="990.2" stroke="#4D4D4D" stroke-opacity="0.2"/>
<line x1="941.576" y1="938.367" x2="1913.3" y2="938.367" stroke="#4D4D4D" stroke-opacity="0.2"/>
<line x1="941.576" y1="886.535" x2="1913.3" y2="886.535" stroke="#4D4D4D" stroke-opacity="0.2"/>
<line x1="941.576" y1="834.703" x2="1913.3" y2="834.703" stroke="#4D4D4D" stroke-opacity="0.2"/>
<line x1="941.576" y1="782.871" x2="1913.3" y2="782.871" stroke="#4D4D4D" stroke-opacity="0.2"/>
<g filter="url(#filter0_f_261_4)">
<ellipse cx="960.175" cy="875.537" rx="779.721" ry="26.9046" fill="#AFAFAF" fill-opacity="0.32"/>
</g>
<g filter="url(#filter1_f_261_4)">
<ellipse cx="316.653" cy="28.3356" rx="316.653" ry="28.3356" transform="matrix(0.744575 0.667538 -0.744575 0.667538 -44.804 24.0998)" fill="#898989" fill-opacity="0.54"/>
</g>
<g filter="url(#filter2_f_261_4)">
<ellipse cx="316.653" cy="28.3356" rx="316.653" ry="28.3356" transform="matrix(-0.744575 0.667538 0.744575 0.667538 1964.8 78.3442)" fill="#898989" fill-opacity="0.54"/>
</g>
<g filter="url(#filter3_f_261_4)">
<ellipse cx="316.653" cy="15.4662" rx="316.653" ry="15.4662" transform="matrix(0.744575 0.667538 -0.744575 0.667538 22.8408 -220)" fill="#898989" fill-opacity="0.65"/>
</g>
<g filter="url(#filter4_f_261_4)">
<ellipse cx="316.653" cy="15.4662" rx="316.653" ry="15.4662" transform="matrix(-0.744575 0.667538 0.744575 0.667538 1897.16 -165.756)" fill="#898989" fill-opacity="0.65"/>
</g>
</g>
<defs>
<filter id="filter0_f_261_4" x="74.4539" y="742.633" width="1771.44" height="265.809" filterUnits="userSpaceOnUse" color-interpolation-filters="sRGB">
<feFlood flood-opacity="0" result="BackgroundImageFix"/>
<feBlend mode="normal" in="SourceGraphic" in2="BackgroundImageFix" result="shape"/>
<feGaussianBlur stdDeviation="53" result="effect1_foregroundBlur_261_4"/>
</filter>
<filter id="filter1_f_261_4" x="-172.859" y="-63.843" width="685.458" height="636.472" filterUnits="userSpaceOnUse" color-interpolation-filters="sRGB">
<feFlood flood-opacity="0" result="BackgroundImageFix"/>
<feBlend mode="normal" in="SourceGraphic" in2="BackgroundImageFix" result="shape"/>
<feGaussianBlur stdDeviation="53" result="effect1_foregroundBlur_261_4"/>
</filter>
<filter id="filter2_f_261_4" x="1407.4" y="-9.59851" width="685.458" height="636.472" filterUnits="userSpaceOnUse" color-interpolation-filters="sRGB">
<feFlood flood-opacity="0" result="BackgroundImageFix"/>
<feBlend mode="normal" in="SourceGraphic" in2="BackgroundImageFix" result="shape"/>
<feGaussianBlur stdDeviation="53" result="effect1_foregroundBlur_261_4"/>
</filter>
<filter id="filter3_f_261_4" x="-94.9612" y="-315.932" width="684.117" height="635.269" filterUnits="userSpaceOnUse" color-interpolation-filters="sRGB">
<feFlood flood-opacity="0" result="BackgroundImageFix"/>
<feBlend mode="normal" in="SourceGraphic" in2="BackgroundImageFix" result="shape"/>
<feGaussianBlur stdDeviation="53" result="effect1_foregroundBlur_261_4"/>
</filter>
<filter id="filter4_f_261_4" x="1330.84" y="-261.688" width="684.117" height="635.269" filterUnits="userSpaceOnUse" color-interpolation-filters="sRGB">
<feFlood flood-opacity="0" result="BackgroundImageFix"/>
<feBlend mode="normal" in="SourceGraphic" in2="BackgroundImageFix" result="shape"/>
<feGaussianBlur stdDeviation="53" result="effect1_foregroundBlur_261_4"/>
</filter>
</defs>
</svg>
